# xmcd CD database file
#
# Track frame offsets:
#	150
#	22348
#	43014
#	67968
#	85183
#	105531
#	125751
#	150672
#	170678
#	191163
#	213896
#	239026
#	258442
#	283699
#
# Disc length: 4111 seconds
#
# Revision: 2
# Processed by: cddbd v1.5.1PL2 Copyright (c) Steve Scherf et al.
# Submitted via: CD2WAV32(JP) R3.22
#
DISCID=d0100d0e
DTITLE=ivory - early works - ivory original songs best
DYEAR=2004
DGENRE=JPop
TTITLE0=早乙女かな - オトメたちの休日 ぱぁと2
TTITLE1=岩城由奈 - 小さなDiary
TTITLE2=鳥居花音 - Fractal青
TTITLE3=日向裕羅 - 走れおんなのこ
TTITLE4=鳥居花音 - Dear……(はぁと)
TTITLE5=日向裕羅 - ふたり
TTITLE6=藤澤暁 - 君へ。
TTITLE7=鳥居花音 - モノクローム・ブルー
TTITLE8=日向裕羅 - カレイドスコープ
TTITLE9=音乃菜摘 - 花
TTITLE10=鳥居花音 - キミの名前 ～二人の最初のクリスマス～
TTITLE11=岩城由奈 - 祈りの歌
TTITLE12=日向裕羅 - 星空の眠り
TTITLE13=鳥居花音 - Pupil
EXTD=
EXTT0=
EXTT1=from「えがおのはつでんしょ/岩城由奈/2001」
EXTT2=from「Fractal青(Blue)/鳥居花音/2002」
EXTT3=from「Pupil/日向裕羅/2001」
EXTT4=from「Secret Tale/鳥居花音/2001」
EXTT5=from「Pupil/日向裕羅/2001」
EXTT6=from「DESTRUCTION/藤澤暁/2001」
EXTT7=from「Secret Tale/鳥居花音/2001」
EXTT8=from「Pupil/日向裕羅/2001」
EXTT9=from「きらりっ/日向裕羅/2001」
EXTT10=from「Secret Tale/鳥居花音/2001」
EXTT11=from「えがおのはつでんしょ/岩城由奈/2001」
EXTT12=from「きらりっ/日向裕羅/2001」
EXTT13=
PLAYORDER=
